<svg xmlns="http://www.w3.org/2000/svg" xmlns:xlink="http://www.w3.org/1999/xlink" width="500" zoomAndPan="magnify" viewBox="0 0 375 374.999991" height="500" preserveAspectRatio="xMidYMid meet" version="1.0"><defs><g/></defs><g fill="#000000" fill-opacity="1"><g transform="translate(-11.798031, 277.293268)"><g><path d="M 19.59375 0 L 19.59375 -34.296875 L 167.171875 -34.296875 L 167.171875 -71.03125 L 53.890625 -71.03125 L 19.59375 -105.328125 L 19.59375 -142.0625 L 53.578125 -176.046875 L 53.578125 -176.359375 L 201.46875 -176.359375 L 201.46875 -142.0625 L 53.890625 -142.0625 L 53.890625 -105.328125 L 167.171875 -105.328125 L 201.46875 -71.03125 L 201.46875 -34.296875 L 167.46875 -0.3125 L 167.46875 0 Z M 19.59375 0 "/></g></g></g><g fill="#000000" fill-opacity="1"><g transform="translate(178.615116, 277.293268)"><g><path d="M 19.59375 0 L 19.59375 -142.0625 L 53.890625 -176.359375 L 188.609375 -176.359375 L 188.609375 -142.0625 L 53.890625 -142.0625 L 53.890625 0 Z M 19.59375 0 "/></g></g></g></svg>